<mxfile host="drawio-plugin" modified="2021-09-15T17:12:59.948Z" agent="5.0 (Windows NT 6.2; Win64; x64) AppleWebKit/537.36 (KHTML, like Gecko) Chrome/87.0.4280.141 Safari/537.36" version="14.7.4" etag="DfAidTUwDO1UGapFI6RK" type="embed" pages="2"><diagram id="Y0-vFx7HS234ckqrC0dv" name="Tính lương"><mxGraphModel dx="1091" dy="660" grid="1" gridSize="10" guides="1" tooltips="1" connect="1" arrows="1" fold="1" page="1" pageScale="1" pageWidth="850" pageHeight="1100" background="#F1FAEE" math="0" shadow="0"><root><mxCell id="0"/><mxCell id="1" parent="0"/></root></mxGraphModel></diagram><diagram id="_t6dWS4cn0sGTFsQZ9tf" name="Page-2">&#xa;        <mxGraphModel dx="1114" dy="782" grid="1" gridSize="10" guides="1" tooltips="1" connect="1" arrows="1" fold="1" page="1" pageScale="1" pageWidth="850" pageHeight="1100" background="#F1FAEE" math="0" shadow="0">&#xa;            <root>&#xa;                <mxCell id="O0QHzRA843YUqYmrQPJ6-0"/>&#xa;                <mxCell id="O0QHzRA843YUqYmrQPJ6-1" parent="O0QHzRA843YUqYmrQPJ6-0"/>&#xa;                <mxCell id="O0QHzRA843YUqYmrQPJ6-18" value="Tinh luong" style="shape=parallelogram;perimeter=parallelogramPerimeter;whiteSpace=wrap;html=1;fixedSize=1;rounded=0;sketch=0;fontColor=#1D3557;strokeColor=#457B9D;fillColor=#A8DADC;" vertex="1" parent="O0QHzRA843YUqYmrQPJ6-1">&#xa;                    <mxGeometry x="80" y="560" width="120" height="60" as="geometry"/>&#xa;                </mxCell>&#xa;                <mxCell id="O0QHzRA843YUqYmrQPJ6-19" value="get ngay cong chuan tu position" style="rhombus;whiteSpace=wrap;html=1;rounded=0;sketch=0;fontColor=#1D3557;strokeColor=#457B9D;fillColor=#A8DADC;" vertex="1" parent="O0QHzRA843YUqYmrQPJ6-1">&#xa;                    <mxGeometry x="360" y="550" width="70" height="80" as="geometry"/>&#xa;                </mxCell>&#xa;            </root>&#xa;        </mxGraphModel>&#xa;    </diagram></mxfile>